<svg id="svg" version="1.1" xmlns="http://www.w3.org/2000/svg" xmlns:xlink="http://www.w3.org/1999/xlink" width="400" height="400.5333333333333" viewBox="0, 0, 400,400.5333333333333"><g id="svgg"><path id="path0" d="M195.972 7.279 C 194.447 8.935,192.110 11.485,190.778 12.945 C 189.445 14.405,186.505 17.621,184.244 20.092 C 181.983 22.563,179.821 24.963,179.438 25.425 L 178.743 26.267 179.342 31.733 C 179.671 34.740,180.022 37.980,180.121 38.933 C 180.220 39.887,180.465 42.107,180.667 43.867 C 180.869 45.627,181.104 47.787,181.190 48.667 C 181.276 49.547,181.519 51.827,181.731 53.733 C 181.942 55.640,182.362 59.540,182.666 62.400 C 182.969 65.260,183.449 69.640,183.732 72.133 C 184.014 74.627,184.489 78.947,184.787 81.733 C 185.085 84.520,185.744 90.575,186.253 95.189 C 186.761 99.803,187.149 103.607,187.114 103.641 C 187.080 103.676,186.215 103.832,185.192 103.988 C 184.170 104.143,183.080 104.328,182.770 104.398 C 182.266 104.512,182.191 104.379,182.053 103.129 C 181.891 101.654,180.759 93.961,177.846 74.533 C 177.560 72.627,177.089 69.432,176.800 67.433 C 176.085 62.489,175.564 59.000,175.333 57.600 C 175.272 57.233,175.034 55.613,174.804 54.000 C 174.573 52.387,174.156 49.627,173.877 47.867 C 173.598 46.107,173.294 44.067,173.202 43.333 C 173.109 42.600,172.858 40.860,172.644 39.467 C 172.430 38.073,172.125 35.973,171.966 34.800 C 171.808 33.627,171.592 32.575,171.488 32.462 C 171.344 32.307,163.679 41.306,159.941 46.019 C 159.501 46.575,159.571 46.955,161.755 55.765 C 163.005 60.808,164.749 67.873,165.630 71.467 C 166.512 75.060,168.786 84.270,170.683 91.934 C 172.581 99.597,174.133 105.971,174.133 106.097 C 174.133 106.224,172.987 106.652,171.587 107.050 C 169.001 107.784,166.648 108.599,162.800 110.094 C 160.327 111.056,153.169 114.526,151.546 115.550 L 150.437 116.250 149.391 114.458 C 148.817 113.473,145.732 108.347,142.536 103.067 C 139.341 97.787,135.318 91.127,133.596 88.267 C 122.755 70.261,118.860 63.838,118.651 63.620 C 118.419 63.379,100.235 61.557,100.029 61.754 C 99.971 61.809,100.043 62.007,100.188 62.194 C 100.333 62.380,102.050 64.693,104.002 67.333 C 105.955 69.973,109.512 74.773,111.906 78.000 C 116.152 83.722,120.952 90.201,125.736 96.667 C 127.038 98.427,129.661 101.967,131.565 104.533 C 133.469 107.100,136.405 111.060,138.090 113.333 C 139.775 115.607,141.679 118.175,142.322 119.042 C 142.964 119.908,143.395 120.699,143.278 120.799 C 141.844 122.031,139.640 123.486,139.505 123.289 C 139.333 123.038,133.874 116.235,125.418 105.733 C 122.937 102.653,118.205 96.773,114.902 92.667 C 111.599 88.560,107.301 83.220,105.350 80.800 C 103.400 78.380,99.276 73.250,96.186 69.400 L 90.569 62.400 89.218 62.398 C 88.010 62.397,81.721 62.109,75.067 61.751 C 71.211 61.544,63.170 61.211,61.877 61.205 L 60.688 61.200 60.747 62.400 C 60.938 66.295,61.614 81.226,61.737 84.267 C 62.000 90.808,62.027 90.954,63.148 91.886 C 63.690 92.337,66.893 94.922,70.267 97.632 C 76.326 102.498,84.460 109.038,96.400 118.643 C 113.256 132.203,116.650 134.926,119.650 137.297 C 123.484 140.328,123.256 139.742,121.510 142.075 C 120.095 143.967,120.083 143.975,119.443 143.537 C 119.090 143.295,116.940 141.718,114.667 140.033 C 109.072 135.886,104.030 132.149,99.867 129.065 C 97.960 127.653,94.540 125.117,92.267 123.429 C 89.993 121.742,86.213 118.942,83.867 117.208 C 78.482 113.230,74.434 110.231,67.200 104.858 C 64.047 102.516,61.377 100.681,61.267 100.779 C 61.158 100.878,61.178 101.913,61.312 103.079 C 61.445 104.246,61.816 108.140,62.136 111.733 C 62.853 119.806,62.412 118.903,66.965 121.631 C 69.074 122.895,75.120 126.540,80.400 129.731 C 91.420 136.392,104.893 144.516,110.994 148.179 C 116.078 151.232,115.760 150.671,114.101 153.653 C 110.993 159.237,107.360 168.139,105.989 173.533 C 105.401 175.845,105.728 175.781,100.844 174.542 C 98.840 174.034,89.640 171.751,80.400 169.470 C 71.160 167.189,59.766 164.369,55.080 163.202 C 47.817 161.393,46.500 161.133,46.147 161.441 C 45.919 161.640,43.453 163.689,40.667 165.996 C 37.880 168.303,35.300 170.452,34.933 170.772 C 34.566 171.091,33.876 171.641,33.400 171.993 C 32.238 172.852,32.309 173.228,33.667 173.425 C 36.665 173.858,48.558 175.623,53.600 176.383 C 55.140 176.615,56.820 176.868,57.333 176.945 C 57.847 177.022,59.467 177.254,60.933 177.460 C 62.400 177.667,63.960 177.893,64.400 177.964 C 64.840 178.034,66.520 178.289,68.133 178.530 C 69.747 178.770,71.367 179.019,71.733 179.083 C 72.100 179.147,75.340 179.627,78.933 180.151 C 82.527 180.674,86.967 181.328,88.800 181.603 C 90.633 181.878,94.713 182.485,97.867 182.951 C 101.020 183.418,103.613 183.815,103.628 183.833 C 103.726 183.950,103.034 188.258,102.895 188.396 C 102.800 188.490,101.780 188.446,100.628 188.298 C 99.476 188.150,97.873 187.963,97.067 187.882 C 94.519 187.626,78.421 185.888,74.667 185.463 C 71.363 185.089,60.048 183.866,41.333 181.860 C 37.300 181.427,33.520 181.017,32.933 180.947 C 32.347 180.878,30.578 180.680,29.004 180.508 L 26.140 180.194 23.404 182.711 C 21.898 184.095,19.347 186.416,17.733 187.868 C 16.120 189.321,14.500 190.798,14.133 191.152 C 13.767 191.506,11.397 193.670,8.867 195.960 C 6.337 198.251,4.267 200.249,4.267 200.400 C 4.267 200.551,6.337 202.552,8.867 204.847 C 11.397 207.142,13.707 209.243,14.000 209.516 C 14.610 210.084,17.687 212.895,19.468 214.510 C 20.129 215.110,21.905 216.729,23.415 218.109 L 26.161 220.617 36.480 219.486 C 45.171 218.533,54.242 217.547,68.533 216.000 C 69.927 215.849,73.287 215.485,76.000 215.192 C 78.713 214.898,81.593 214.593,82.400 214.514 C 83.207 214.435,84.767 214.263,85.867 214.132 C 89.457 213.705,90.191 213.623,96.642 212.938 C 100.148 212.566,103.043 212.293,103.074 212.331 C 103.292 212.595,103.728 216.909,103.553 217.073 C 103.432 217.186,102.373 217.406,101.200 217.563 C 100.027 217.720,97.027 218.156,94.533 218.533 C 92.040 218.909,88.800 219.389,87.333 219.598 C 85.867 219.808,83.047 220.228,81.067 220.533 C 79.087 220.838,74.647 221.499,71.200 222.003 C 67.753 222.506,63.313 223.166,61.333 223.468 C 59.353 223.771,54.553 224.488,50.667 225.062 C 37.182 227.053,32.731 227.745,32.506 227.883 C 32.310 228.005,33.725 229.258,38.697 233.366 C 39.340 233.898,41.328 235.548,43.113 237.033 C 44.899 238.518,46.545 239.733,46.771 239.733 C 46.997 239.733,53.036 238.285,60.191 236.516 C 67.346 234.746,80.444 231.506,89.297 229.316 C 98.150 227.125,105.470 225.334,105.563 225.334 C 105.657 225.335,106.078 226.536,106.499 228.004 C 107.945 233.047,110.202 238.647,112.973 244.063 L 114.574 247.193 113.087 248.091 C 112.269 248.585,108.120 251.093,103.867 253.664 C 90.348 261.836,75.794 270.614,69.600 274.333 C 62.532 278.577,62.792 278.375,62.721 279.658 C 62.649 280.943,61.650 291.721,61.341 294.531 C 61.011 297.541,60.534 297.668,66.667 293.109 C 68.940 291.419,72.390 288.858,74.333 287.418 C 82.098 281.665,85.357 279.251,88.800 276.700 C 94.854 272.215,99.138 269.041,103.600 265.734 C 105.947 263.994,109.247 261.550,110.933 260.302 C 112.620 259.054,115.114 257.200,116.475 256.181 C 117.836 255.162,118.984 254.374,119.026 254.431 C 119.068 254.487,119.681 255.313,120.387 256.267 C 121.094 257.220,121.777 258.134,121.905 258.297 C 122.061 258.496,120.650 259.788,117.669 262.176 C 115.211 264.145,110.380 268.026,106.933 270.799 C 103.487 273.572,96.407 279.264,91.200 283.448 C 85.993 287.632,80.113 292.359,78.133 293.952 C 76.153 295.546,71.683 299.138,68.200 301.934 L 61.867 307.018 61.844 309.309 C 61.831 310.569,61.788 312.020,61.748 312.533 C 61.708 313.047,61.590 315.627,61.485 318.267 C 61.381 320.907,61.254 323.367,61.203 323.733 C 61.152 324.100,61.036 326.440,60.944 328.933 C 60.853 331.427,60.709 334.233,60.625 335.170 L 60.472 336.873 64.969 336.691 C 67.443 336.592,71.507 336.401,74.000 336.267 C 76.493 336.134,80.453 335.957,82.800 335.875 C 85.147 335.792,87.846 335.654,88.799 335.568 C 90.821 335.384,90.068 336.117,96.572 328.000 C 98.981 324.993,102.935 320.073,105.358 317.067 C 109.548 311.866,113.487 306.971,124.883 292.800 C 127.655 289.353,131.860 284.108,134.228 281.143 C 136.596 278.178,138.608 275.748,138.698 275.743 C 138.789 275.738,139.655 276.345,140.624 277.093 L 142.384 278.452 140.842 280.493 C 139.993 281.615,138.413 283.733,137.331 285.200 C 134.980 288.386,130.219 294.813,126.665 299.600 C 125.250 301.507,122.848 304.747,121.329 306.800 C 119.809 308.853,117.231 312.333,115.599 314.533 C 113.967 316.733,111.120 320.573,109.273 323.067 C 107.426 325.560,104.576 329.400,102.942 331.600 C 99.443 336.308,99.207 335.973,105.581 335.354 C 108.011 335.119,110.600 334.870,111.333 334.802 C 116.713 334.300,118.555 334.079,118.697 333.918 C 118.787 333.817,120.301 331.333,122.061 328.400 C 123.822 325.467,128.234 318.147,131.868 312.133 C 135.501 306.120,139.701 299.160,141.202 296.667 C 146.629 287.649,149.105 283.596,149.324 283.373 C 149.447 283.248,150.369 283.624,151.374 284.208 C 157.142 287.562,165.174 290.991,171.804 292.929 C 173.857 293.529,174.380 293.780,174.280 294.112 C 174.159 294.514,169.348 313.946,165.363 330.133 C 164.334 334.313,162.588 341.387,161.484 345.852 C 159.789 352.710,159.532 354.034,159.831 354.385 C 161.336 356.150,169.651 366.229,170.363 367.152 C 171.457 368.568,171.600 368.441,171.966 365.733 C 172.125 364.560,172.430 362.460,172.644 361.067 C 172.858 359.673,173.109 357.933,173.202 357.200 C 173.294 356.467,173.598 354.427,173.877 352.667 C 174.156 350.907,174.573 348.147,174.804 346.533 C 175.034 344.920,175.272 343.300,175.333 342.933 C 175.564 341.533,176.085 338.044,176.800 333.100 C 177.089 331.102,177.560 327.907,177.846 326.000 C 179.146 317.329,180.340 309.294,181.077 304.267 C 182.054 297.600,182.359 295.684,182.458 295.592 C 182.707 295.358,187.200 296.150,187.200 296.427 C 187.200 296.605,186.779 300.572,186.265 305.242 C 185.048 316.296,183.347 331.874,182.659 338.267 C 182.360 341.053,181.942 344.893,181.731 346.800 C 181.519 348.707,181.276 350.987,181.190 351.867 C 181.104 352.747,180.869 354.907,180.667 356.667 C 180.465 358.427,180.220 360.647,180.121 361.600 C 180.022 362.553,179.671 365.793,179.342 368.800 L 178.743 374.267 179.438 375.108 C 179.821 375.571,181.984 377.971,184.246 380.441 C 186.508 382.912,189.388 386.072,190.646 387.464 C 195.970 393.355,198.721 396.267,198.961 396.267 C 199.073 396.267,200.943 394.319,203.116 391.939 C 205.289 389.560,207.247 387.423,207.467 387.193 C 207.687 386.962,208.838 385.699,210.026 384.387 C 211.214 383.074,213.765 380.266,215.695 378.147 C 218.878 374.652,219.192 374.217,219.074 373.480 C 219.003 373.033,218.698 370.327,218.397 367.467 C 218.095 364.607,217.798 361.847,217.736 361.333 C 217.560 359.873,216.379 348.998,214.407 330.667 C 213.815 325.167,213.213 319.647,213.069 318.400 C 212.925 317.153,212.563 313.793,212.263 310.933 C 211.636 304.941,210.988 299.028,210.783 297.426 L 210.642 296.319 212.588 296.006 C 213.658 295.834,214.726 295.640,214.962 295.574 C 215.322 295.474,215.460 295.958,215.820 298.594 C 216.057 300.321,216.678 304.553,217.200 308.000 C 217.723 311.447,218.620 317.447,219.195 321.333 C 220.538 330.410,221.495 336.848,222.148 341.200 C 222.434 343.107,223.089 347.547,223.602 351.067 C 224.116 354.587,224.591 357.767,224.657 358.133 C 224.723 358.500,225.027 360.524,225.332 362.630 C 225.638 364.737,225.975 366.882,226.082 367.398 L 226.277 368.334 227.205 367.286 C 227.716 366.710,228.569 365.704,229.101 365.052 C 229.633 364.400,231.883 361.679,234.101 359.004 C 236.319 356.330,238.133 353.974,238.133 353.768 C 238.133 353.563,237.535 350.986,236.804 348.041 C 235.274 341.882,231.932 328.359,226.946 308.157 C 225.030 300.397,223.504 294.007,223.553 293.958 C 223.603 293.908,225.039 293.457,226.744 292.955 C 233.651 290.923,241.727 287.494,247.183 284.277 C 247.967 283.814,248.692 283.533,248.793 283.651 C 249.023 283.920,252.527 289.667,256.727 296.667 C 258.488 299.600,262.359 306.020,265.329 310.933 C 268.300 315.847,272.714 323.167,275.139 327.200 C 277.563 331.233,279.578 334.573,279.616 334.620 C 279.673 334.692,292.927 335.989,297.000 336.322 C 298.631 336.455,299.225 337.427,290.540 325.733 C 288.906 323.533,286.324 320.053,284.803 318.000 C 283.282 315.947,280.880 312.707,279.466 310.800 C 278.051 308.893,275.830 305.893,274.530 304.133 C 273.230 302.373,270.607 298.833,268.702 296.267 C 256.052 279.227,255.907 279.027,256.020 278.762 C 256.073 278.636,256.925 277.910,257.911 277.147 L 259.705 275.762 262.452 279.140 C 263.964 280.998,266.460 284.093,268.000 286.017 C 270.888 289.626,277.419 297.746,284.930 307.067 C 288.727 311.778,292.167 316.055,304.610 331.533 C 307.460 335.079,307.855 335.468,308.619 335.485 C 309.085 335.495,309.827 335.544,310.267 335.594 C 310.707 335.644,312.927 335.757,315.200 335.845 C 317.473 335.933,322.933 336.192,327.333 336.421 C 331.733 336.650,335.862 336.799,336.508 336.752 L 337.682 336.667 337.629 334.267 C 337.599 332.947,337.525 331.327,337.464 330.667 C 337.403 330.007,337.286 327.727,337.203 325.600 C 336.808 315.387,336.361 306.929,336.209 306.797 C 336.168 306.761,333.373 304.522,330.000 301.823 C 326.627 299.123,321.107 294.693,317.733 291.978 C 290.047 269.697,286.895 267.163,281.533 262.872 C 278.783 260.672,276.533 258.817,276.533 258.750 C 276.533 258.473,279.578 254.400,279.785 254.400 C 279.908 254.400,281.657 255.622,283.671 257.115 C 285.685 258.608,289.193 261.209,291.467 262.895 C 298.183 267.876,302.444 271.035,306.200 273.817 C 308.143 275.256,311.383 277.656,313.400 279.150 C 321.536 285.178,324.430 287.321,327.933 289.911 C 329.950 291.401,332.793 293.514,334.250 294.605 C 335.708 295.696,337.058 296.649,337.250 296.723 C 337.715 296.901,337.704 296.489,337.057 289.467 C 336.760 286.240,336.442 282.700,336.350 281.600 C 336.089 278.451,336.079 278.434,333.583 276.929 C 332.346 276.183,328.633 273.945,325.333 271.956 C 322.033 269.967,314.113 265.190,307.733 261.340 C 301.353 257.490,293.427 252.709,290.119 250.715 L 284.105 247.089 285.887 243.611 C 288.488 238.533,290.396 233.611,292.956 225.379 C 293.100 224.917,289.715 224.111,340.460 236.680 C 347.240 238.359,352.979 239.733,353.213 239.733 C 353.448 239.733,355.101 238.518,356.887 237.033 C 358.672 235.548,360.660 233.898,361.303 233.366 C 366.275 229.258,367.690 228.005,367.494 227.883 C 367.269 227.745,362.818 227.053,349.333 225.062 C 345.447 224.488,340.647 223.771,338.667 223.468 C 336.687 223.166,332.247 222.506,328.800 222.003 C 325.353 221.499,320.913 220.838,318.933 220.533 C 316.953 220.228,314.133 219.808,312.667 219.598 C 311.200 219.389,307.960 218.911,305.467 218.537 C 302.973 218.162,299.613 217.664,298.000 217.430 C 294.452 216.915,294.789 217.270,295.191 214.463 L 295.527 212.116 302.361 212.841 C 311.251 213.783,311.770 213.840,314.133 214.127 C 315.233 214.261,316.793 214.435,317.600 214.514 C 318.407 214.593,321.287 214.898,324.000 215.192 C 326.713 215.485,330.073 215.849,331.467 216.000 C 345.758 217.547,354.829 218.533,363.520 219.486 L 373.839 220.617 376.585 218.109 C 378.095 216.729,379.871 215.110,380.532 214.510 C 382.313 212.895,385.390 210.084,386.000 209.516 C 386.293 209.243,388.603 207.142,391.133 204.847 C 393.663 202.552,395.733 200.553,395.733 200.404 C 395.733 200.255,393.552 198.153,390.887 195.733 C 388.221 193.313,385.851 191.146,385.620 190.918 C 385.389 190.689,383.880 189.316,382.267 187.865 C 380.653 186.414,378.102 184.095,376.596 182.711 L 373.860 180.194 370.996 180.508 C 369.422 180.680,367.653 180.878,367.067 180.947 C 366.480 181.017,362.700 181.427,358.667 181.860 C 339.952 183.866,328.637 185.089,325.333 185.463 C 321.350 185.914,305.658 187.611,302.933 187.885 C 301.980 187.981,299.967 188.207,298.461 188.386 C 295.330 188.758,295.732 189.069,295.219 185.884 C 294.880 183.778,294.016 184.168,301.486 183.053 C 304.995 182.530,309.367 181.877,311.200 181.602 C 313.033 181.327,317.473 180.674,321.067 180.151 C 324.660 179.627,327.900 179.147,328.267 179.083 C 328.633 179.019,330.253 178.770,331.867 178.530 C 333.480 178.289,335.160 178.034,335.600 177.964 C 336.040 177.893,337.600 177.667,339.067 177.460 C 340.533 177.254,342.153 177.022,342.667 176.945 C 343.180 176.868,344.860 176.615,346.400 176.383 C 351.442 175.623,363.335 173.858,366.333 173.425 C 367.691 173.228,367.762 172.852,366.600 171.993 C 366.124 171.641,365.434 171.091,365.067 170.772 C 364.700 170.452,362.120 168.303,359.333 165.996 C 356.547 163.689,354.081 161.640,353.853 161.441 C 353.500 161.133,352.183 161.393,344.920 163.202 C 340.234 164.368,328.600 167.250,319.067 169.606 C 309.533 171.961,299.873 174.355,297.600 174.925 C 293.857 175.865,293.450 175.920,293.287 175.515 C 293.188 175.268,292.376 172.787,291.482 170.000 C 289.768 164.652,287.612 159.547,284.848 154.291 C 283.930 152.544,283.273 151.028,283.389 150.923 C 283.505 150.817,286.900 148.751,290.933 146.331 C 294.967 143.911,302.587 139.323,307.867 136.135 C 313.147 132.947,321.007 128.206,325.333 125.600 C 336.745 118.727,335.970 119.252,336.118 118.297 C 336.241 117.500,336.718 112.603,337.447 104.667 C 337.843 100.347,337.840 100.331,336.717 101.156 C 335.298 102.199,328.754 107.037,324.933 109.867 C 322.953 111.333,319.713 113.733,317.733 115.200 C 315.753 116.667,312.513 119.067,310.533 120.533 C 306.199 123.744,301.343 127.343,295.600 131.600 C 293.253 133.339,290.013 135.739,288.400 136.933 C 286.787 138.128,283.978 140.210,282.160 141.561 C 280.341 142.912,278.766 143.984,278.661 143.942 C 278.423 143.849,275.677 140.225,275.787 140.150 C 275.831 140.121,278.027 138.371,280.667 136.262 C 285.164 132.668,288.551 129.947,303.867 117.622 C 310.495 112.287,319.040 105.419,330.000 96.614 C 335.514 92.185,336.940 90.911,336.967 90.389 C 336.986 90.028,337.079 87.693,337.174 85.200 C 337.270 82.707,337.406 79.647,337.476 78.400 C 337.740 73.729,338.124 65.654,338.187 63.467 L 338.252 61.200 337.059 61.228 C 334.428 61.289,326.192 61.636,325.067 61.733 C 324.407 61.790,320.371 61.983,316.099 62.162 L 308.331 62.487 306.729 64.510 C 305.848 65.623,303.580 68.453,301.690 70.800 C 299.800 73.147,295.551 78.427,292.248 82.533 C 285.276 91.202,279.071 98.911,272.717 106.800 C 270.236 109.880,266.170 114.938,263.682 118.040 L 259.157 123.680 257.379 122.339 C 255.114 120.632,255.112 120.985,257.411 117.948 C 259.175 115.617,261.944 111.891,268.269 103.333 C 269.353 101.867,272.112 98.147,274.400 95.067 C 276.689 91.987,279.626 88.027,280.927 86.267 C 286.220 79.108,287.212 77.767,291.291 72.267 C 293.629 69.113,296.301 65.516,297.229 64.272 C 298.157 63.028,298.830 61.934,298.725 61.842 C 298.552 61.690,283.184 63.001,281.164 63.339 C 280.434 63.462,280.108 63.842,278.599 66.340 C 261.708 94.293,257.031 102.043,252.734 109.200 C 250.533 112.867,248.637 115.971,248.521 116.099 C 248.404 116.227,247.609 115.910,246.755 115.394 C 241.624 112.303,232.460 108.529,224.782 106.346 L 223.565 106.000 226.144 95.600 C 227.562 89.880,230.233 79.080,232.079 71.600 C 233.925 64.120,236.042 55.556,236.784 52.569 C 237.526 49.582,238.133 46.970,238.133 46.765 C 238.133 46.560,236.319 44.203,234.101 41.529 C 231.883 38.855,229.633 36.133,229.101 35.481 C 228.569 34.829,227.716 33.824,227.205 33.247 L 226.277 32.199 226.082 33.136 C 225.975 33.651,225.638 35.796,225.332 37.903 C 225.027 40.010,224.724 42.033,224.659 42.400 C 224.594 42.767,224.178 45.587,223.735 48.667 C 223.292 51.747,222.813 54.987,222.670 55.867 C 222.528 56.747,222.172 59.087,221.880 61.067 C 221.359 64.602,220.546 70.063,217.852 88.133 C 217.109 93.120,216.276 98.742,216.001 100.628 C 215.401 104.738,215.739 104.362,212.986 103.977 L 210.712 103.659 210.821 102.829 C 210.980 101.610,211.642 95.536,212.263 89.600 C 212.563 86.740,212.925 83.380,213.069 82.133 C 213.213 80.887,213.815 75.367,214.407 69.867 C 216.379 51.535,217.560 40.661,217.736 39.200 C 217.798 38.687,218.094 35.927,218.393 33.067 C 218.692 30.207,218.986 27.492,219.046 27.035 C 219.160 26.167,219.054 26.030,213.759 20.250 C 213.011 19.435,211.380 17.641,210.133 16.264 C 208.887 14.887,207.687 13.569,207.467 13.336 C 207.247 13.103,205.289 10.967,203.116 8.590 C 200.943 6.212,199.070 4.267,198.955 4.267 C 198.839 4.267,197.497 5.622,195.972 7.279 M210.643 107.853 C 285.314 117.590,318.174 205.851,268.098 262.174 C 225.595 309.978,146.636 299.852,117.031 242.800 C 86.233 183.448,125.434 113.378,192.800 107.365 C 195.593 107.116,207.485 107.441,210.643 107.853 M193.067 116.693 C 192.553 116.753,190.933 116.928,189.467 117.082 C 146.360 121.612,113.145 161.261,115.991 204.792 C 120.742 277.461,208.631 309.981,259.333 257.831 C 302.835 213.087,282.842 137.521,222.833 119.870 C 214.187 117.327,200.312 115.846,193.067 116.693 M209.600 118.527 C 282.511 128.263,307.237 221.369,248.631 265.494 C 240.475 271.635,224.150 279.467,219.506 279.467 C 219.285 279.467,219.200 277.867,219.200 273.733 L 219.200 268.000 213.600 268.000 L 208.000 268.000 208.000 274.800 L 208.000 281.600 207.067 281.600 L 206.133 281.600 206.133 274.800 L 206.133 268.000 198.533 268.000 L 190.933 268.000 190.933 274.651 C 190.933 281.583,190.906 281.737,189.746 281.446 L 189.067 281.276 189.067 274.638 L 189.067 268.000 183.467 268.000 L 177.867 268.000 177.867 273.467 C 177.867 279.833,178.235 279.347,174.336 278.128 C 135.763 266.071,111.630 226.367,118.419 186.133 C 125.672 143.150,166.622 112.787,209.600 118.527 M197.151 123.556 L 195.777 126.318 193.289 126.644 C 189.407 127.153,189.502 126.955,191.960 129.428 L 194.118 131.600 193.614 134.399 C 192.999 137.815,192.786 137.663,195.892 136.027 L 198.483 134.663 201.006 136.012 C 204.041 137.633,203.923 137.716,203.364 134.352 L 202.913 131.632 205.083 129.451 L 207.253 127.269 206.360 127.117 C 205.869 127.033,204.529 126.819,203.383 126.643 L 201.299 126.321 199.912 123.557 L 198.525 120.793 197.151 123.556 M172.786 169.267 L 171.867 170.267 172.867 169.348 C 173.797 168.492,173.989 168.267,173.786 168.267 C 173.741 168.267,173.291 168.717,172.786 169.267 M184.046 170.002 C 182.182 172.372,181.215 178.525,182.000 183.025 C 183.092 189.287,185.606 193.203,195.981 204.800 C 207.052 217.177,209.575 222.727,208.533 232.407 C 208.190 235.584,208.228 235.907,208.911 235.645 C 210.797 234.922,212.937 226.005,212.729 219.733 C 212.388 209.458,209.480 204.814,194.028 189.861 C 187.142 183.198,184.876 178.666,185.111 172.024 C 185.209 169.271,184.973 168.824,184.046 170.002 M132.133 199.667 L 130.800 202.267 128.000 202.638 C 126.460 202.842,125.146 203.055,125.081 203.112 C 125.015 203.169,125.907 204.167,127.063 205.329 L 129.164 207.443 128.711 210.055 C 128.462 211.491,128.260 212.822,128.262 213.012 C 128.265 213.227,129.269 212.842,130.932 211.988 L 133.597 210.619 136.155 211.998 C 139.225 213.653,139.026 213.798,138.436 210.336 L 137.953 207.502 140.035 205.432 C 141.180 204.293,142.064 203.308,141.998 203.242 C 141.932 203.176,140.646 202.930,139.139 202.695 L 136.400 202.267 135.067 199.667 C 134.333 198.238,133.673 197.068,133.600 197.068 C 133.527 197.068,132.867 198.238,132.133 199.667 M263.867 199.667 L 262.533 202.267 259.733 202.638 C 258.193 202.842,256.880 203.055,256.814 203.112 C 256.749 203.169,257.641 204.167,258.796 205.329 L 260.897 207.443 260.444 210.055 C 260.195 211.491,259.993 212.822,259.996 213.012 C 259.998 213.227,261.003 212.842,262.665 211.988 L 265.330 210.619 267.888 211.998 C 270.958 213.653,270.759 213.798,270.169 210.336 L 269.686 207.502 271.768 205.432 C 272.914 204.293,273.797 203.308,273.731 203.242 C 273.665 203.176,272.379 202.930,270.872 202.695 L 268.133 202.267 266.800 199.667 C 266.067 198.238,265.407 197.068,265.333 197.068 C 265.260 197.068,264.600 198.238,263.867 199.667 M182.617 250.333 C 185.009 250.377,188.849 250.377,191.150 250.333 C 193.451 250.288,191.493 250.252,186.800 250.252 C 182.107 250.252,180.224 250.289,182.617 250.333 M168.267 253.951 C 168.267 254.394,168.531 254.694,169.203 255.014 C 172.322 256.502,174.461 260.604,173.650 263.543 L 173.376 264.533 198.237 264.533 L 223.098 264.533 223.106 262.333 C 223.117 259.103,224.613 256.520,227.255 255.172 C 228.015 254.784,228.267 254.492,228.267 253.995 L 228.267 253.333 198.267 253.333 L 168.267 253.333 168.267 253.951 " stroke="none" fill="#f4cc4c" fill-rule="evenodd"></path><path id="path1" d="M190.133 107.769 C 134.070 113.492,96.012 167.384,109.371 222.133 C 121.038 269.950,168.831 300.337,217.333 290.777 C 265.596 281.264,298.121 235.206,290.953 186.525 C 283.767 137.718,239.037 102.777,190.133 107.769 M205.200 116.548 C 277.279 121.934,309.224 209.744,257.400 260.037 C 214.423 301.746,141.946 285.433,120.988 229.333 C 99.726 172.419,144.811 112.035,205.200 116.548 M191.200 118.419 C 139.847 124.066,106.466 173.533,120.683 222.917 C 128.411 249.757,149.156 270.338,177.000 278.787 L 177.600 278.969 177.600 273.351 L 177.600 267.733 183.329 267.733 L 189.058 267.733 189.129 274.467 L 189.200 281.200 189.933 281.284 L 190.667 281.369 190.667 274.551 L 190.667 267.733 198.400 267.733 L 206.133 267.733 206.133 274.518 C 206.133 281.482,206.181 281.790,207.202 281.466 C 207.714 281.303,207.733 281.053,207.733 274.515 L 207.733 267.733 213.467 267.733 L 219.200 267.733 219.200 273.501 L 219.200 279.268 220.244 279.101 C 225.614 278.242,237.532 272.886,244.658 268.128 C 290.881 237.266,293.680 170.325,250.191 135.785 C 233.852 122.809,211.397 116.198,191.200 118.419 M199.990 123.446 C 201.460 126.375,201.246 126.229,204.742 126.687 C 207.885 127.099,207.874 127.042,205.284 129.449 L 203.099 131.479 203.569 134.430 C 204.147 138.057,204.303 137.940,201.150 136.258 L 198.532 134.862 195.804 136.231 C 194.304 136.984,193.031 137.600,192.977 137.600 C 192.922 137.600,193.121 136.198,193.420 134.484 L 193.964 131.367 191.718 129.303 C 190.482 128.168,189.530 127.186,189.602 127.121 C 189.674 127.055,190.753 126.862,192.000 126.692 C 195.983 126.147,195.598 126.394,197.078 123.443 C 198.680 120.251,198.386 120.251,199.990 123.446 M198.762 141.933 C 198.969 142.264,199.278 143.993,199.449 145.780 C 200.756 159.368,205.816 167.427,220.267 178.931 C 227.199 184.450,234.163 191.795,237.145 196.733 C 247.448 213.797,241.777 236.917,224.452 248.478 L 221.571 250.400 209.919 250.386 C 198.876 250.373,198.301 250.348,198.925 249.919 C 214.925 238.921,221.596 222.948,215.877 209.333 C 213.748 204.264,210.049 198.742,204.281 192.023 C 191.807 177.492,188.417 168.369,190.796 155.733 C 192.311 147.686,197.135 139.328,198.762 141.933 M176.971 167.068 C 177.055 167.289,176.808 168.585,176.422 169.948 C 174.576 176.455,175.105 183.620,177.869 189.531 C 179.845 193.757,181.590 196.054,190.405 206.026 C 202.461 219.664,205.435 229.116,201.138 240.133 C 199.880 243.359,198.039 246.907,196.628 248.825 L 195.468 250.400 186.817 250.400 L 178.166 250.400 176.083 248.825 C 167.030 241.981,160.557 233.641,157.515 224.902 C 152.922 211.705,156.366 192.482,165.967 177.733 C 170.486 170.791,176.254 165.200,176.971 167.068 M185.357 173.088 C 185.667 180.706,187.239 183.282,197.600 193.142 C 207.230 202.307,210.183 206.563,212.334 214.373 C 213.140 217.303,213.143 224.164,212.340 227.600 C 210.582 235.121,207.515 239.363,208.314 233.168 C 208.987 227.954,208.093 222.817,205.626 217.733 C 203.755 213.876,202.914 212.769,195.984 205.042 C 185.927 193.827,183.384 190.003,182.034 184.070 C 180.957 179.335,182.062 171.889,184.191 169.537 C 185.022 168.618,185.196 169.148,185.357 173.088 M135.081 199.442 C 136.471 202.396,135.949 202.061,140.133 202.690 C 141.307 202.867,142.320 203.057,142.386 203.114 C 142.452 203.170,141.524 204.203,140.324 205.409 L 138.143 207.601 138.645 210.534 C 139.257 214.108,139.496 213.937,136.271 212.229 L 133.576 210.802 130.862 212.186 C 127.611 213.844,127.852 214.017,128.490 210.494 L 129.015 207.600 126.855 205.408 C 125.667 204.203,124.755 203.156,124.828 203.083 C 124.943 202.968,130.023 202.133,130.609 202.133 C 130.726 202.133,131.412 200.933,132.133 199.467 C 133.730 196.221,133.567 196.222,135.081 199.442 M266.815 199.442 C 268.204 202.396,267.683 202.061,271.867 202.690 C 273.040 202.867,274.054 203.057,274.119 203.114 C 274.185 203.170,273.257 204.203,272.058 205.409 L 269.876 207.601 270.378 210.534 C 270.990 214.108,271.230 213.937,268.004 212.229 L 265.309 210.802 262.595 212.186 C 259.345 213.843,259.603 214.031,260.212 210.451 L 260.713 207.502 258.484 205.284 L 256.254 203.067 257.127 202.894 C 257.607 202.799,259.029 202.580,260.288 202.407 L 262.575 202.091 263.877 199.446 C 265.463 196.223,265.301 196.223,266.815 199.442 M228.479 254.009 C 228.549 254.717,228.444 254.858,227.635 255.151 C 224.998 256.105,223.333 258.884,223.333 262.333 L 223.333 264.800 198.354 264.800 L 173.374 264.800 173.515 262.867 C 173.759 259.509,172.120 256.614,169.165 255.183 C 168.051 254.644,167.622 253.800,168.179 253.243 C 168.277 253.145,181.867 253.095,198.379 253.132 L 228.400 253.200 228.479 254.009 " stroke="none" fill="#fbfbfa" fill-rule="evenodd"></path><path id="path2" d="M175.527 167.115 C 171.068 169.283,162.710 181.959,159.207 191.867 C 150.997 215.092,156.616 233.935,176.157 248.704 L 178.047 250.133 186.837 250.133 L 195.626 250.133 197.026 248.013 C 200.906 242.131,203.156 235.122,202.850 229.867 C 202.387 221.914,198.911 215.846,187.200 202.546 C 175.643 189.420,172.868 180.903,176.428 169.487 C 177.222 166.943,177.012 166.393,175.527 167.115 " stroke="none" fill="#bc282e" fill-rule="evenodd"></path><path id="path3" d="M196.614 107.399 C 198.199 107.446,200.719 107.446,202.214 107.399 C 203.710 107.351,202.413 107.313,199.333 107.313 C 196.253 107.313,195.030 107.352,196.614 107.399 M190.870 107.655 C 191.201 107.719,191.681 107.717,191.936 107.650 C 192.191 107.583,191.920 107.531,191.333 107.534 C 190.747 107.537,190.538 107.591,190.870 107.655 M206.600 107.655 C 206.930 107.718,207.470 107.718,207.800 107.655 C 208.130 107.591,207.860 107.539,207.200 107.539 C 206.540 107.539,206.270 107.591,206.600 107.655 M238.667 116.133 C 239.033 116.343,239.453 116.514,239.600 116.514 C 239.747 116.514,239.567 116.343,239.200 116.133 C 238.833 115.924,238.413 115.752,238.267 115.752 C 238.120 115.752,238.300 115.924,238.667 116.133 M197.267 116.465 C 198.330 116.515,200.070 116.515,201.133 116.465 C 202.197 116.414,201.327 116.373,199.200 116.373 C 197.073 116.373,196.203 116.414,197.267 116.465 M192.200 116.722 C 192.530 116.785,193.070 116.785,193.400 116.722 C 193.730 116.658,193.460 116.606,192.800 116.606 C 192.140 116.606,191.870 116.658,192.200 116.722 M205.267 116.722 C 205.597 116.785,206.137 116.785,206.467 116.722 C 206.797 116.658,206.527 116.606,205.867 116.606 C 205.207 116.606,204.937 116.658,205.267 116.722 M189.400 116.984 C 189.657 117.051,190.077 117.051,190.333 116.984 C 190.590 116.917,190.380 116.862,189.867 116.862 C 189.353 116.862,189.143 116.917,189.400 116.984 M208.333 116.984 C 208.590 117.051,209.010 117.051,209.267 116.984 C 209.523 116.917,209.313 116.862,208.800 116.862 C 208.287 116.862,208.077 116.917,208.333 116.984 M241.600 117.453 C 241.600 117.526,241.960 117.772,242.400 118.000 C 242.840 118.228,243.200 118.354,243.200 118.280 C 243.200 118.207,242.840 117.961,242.400 117.733 C 241.960 117.506,241.600 117.380,241.600 117.453 M197.146 118.065 C 198.437 118.114,200.477 118.114,201.680 118.065 C 202.883 118.016,201.827 117.975,199.333 117.976 C 196.840 117.976,195.856 118.016,197.146 118.065 M191.936 118.322 C 192.268 118.386,192.748 118.383,193.003 118.317 C 193.258 118.250,192.987 118.198,192.400 118.201 C 191.813 118.204,191.605 118.258,191.936 118.322 M205.533 118.322 C 205.863 118.385,206.403 118.385,206.733 118.322 C 207.063 118.258,206.793 118.206,206.133 118.206 C 205.473 118.206,205.203 118.258,205.533 118.322 M233.333 125.467 C 233.700 125.676,234.120 125.848,234.267 125.848 C 234.413 125.848,234.233 125.676,233.867 125.467 C 233.500 125.257,233.080 125.086,232.933 125.086 C 232.787 125.086,232.967 125.257,233.333 125.467 M189.600 127.148 C 189.600 127.266,190.050 127.776,190.600 128.281 L 191.600 129.200 190.710 128.230 C 190.075 127.537,189.922 127.219,190.177 127.118 C 190.418 127.022,190.382 126.969,190.067 126.954 C 189.810 126.943,189.600 127.030,189.600 127.148 M206.635 127.126 C 207.235 127.240,207.184 127.338,205.702 128.890 L 204.133 130.533 205.787 128.954 C 207.462 127.355,207.643 126.904,206.584 126.970 C 206.036 127.004,206.040 127.013,206.635 127.126 M237.333 127.320 C 237.333 127.393,237.693 127.639,238.133 127.867 C 238.573 128.094,238.933 128.220,238.933 128.147 C 238.933 128.074,238.573 127.828,238.133 127.600 C 237.693 127.372,237.333 127.246,237.333 127.320 M159.933 127.886 C 158.936 128.427,158.997 128.652,160.000 128.133 C 160.440 127.906,160.800 127.663,160.800 127.593 C 160.800 127.422,160.771 127.431,159.933 127.886 M259.467 129.417 C 259.467 129.463,259.857 129.853,260.333 130.283 L 261.200 131.067 260.417 130.200 C 259.687 129.392,259.467 129.211,259.467 129.417 M151.867 131.090 L 151.067 131.777 151.933 131.204 C 152.410 130.888,152.800 130.579,152.800 130.515 C 152.800 130.316,152.687 130.385,151.867 131.090 M133.730 134.467 L 130.000 138.267 133.800 134.537 C 137.330 131.072,137.721 130.667,137.530 130.667 C 137.491 130.667,135.781 132.377,133.730 134.467 M264.667 134.400 C 266.422 136.160,267.918 137.600,267.992 137.600 C 268.065 137.600,266.689 136.160,264.933 134.400 C 263.178 132.640,261.682 131.200,261.608 131.200 C 261.535 131.200,262.911 132.640,264.667 134.400 M200.533 135.853 C 200.533 135.926,200.893 136.172,201.333 136.400 C 201.773 136.628,202.133 136.754,202.133 136.680 C 202.133 136.607,201.773 136.361,201.333 136.133 C 200.893 135.906,200.533 135.780,200.533 135.853 M203.668 136.933 C 203.598 137.300,203.644 137.600,203.770 137.600 C 203.897 137.600,204.000 137.300,204.000 136.933 C 204.000 136.567,203.954 136.267,203.898 136.267 C 203.842 136.267,203.738 136.567,203.668 136.933 M143.850 137.400 L 143.067 138.267 143.933 137.483 C 144.410 137.053,144.800 136.663,144.800 136.617 C 144.800 136.411,144.580 136.592,143.850 137.400 M251.733 136.883 C 251.733 136.929,252.123 137.319,252.600 137.750 L 253.467 138.533 252.683 137.667 C 251.953 136.859,251.733 136.677,251.733 136.883 M254.933 137.733 C 255.431 138.247,255.898 138.667,255.971 138.667 C 256.045 138.667,255.698 138.247,255.200 137.733 C 254.702 137.220,254.235 136.800,254.162 136.800 C 254.089 136.800,254.436 137.220,254.933 137.733 M144.000 139.333 C 143.352 139.993,142.882 140.533,142.956 140.533 C 143.029 140.533,143.619 139.993,144.267 139.333 C 144.914 138.673,145.384 138.133,145.311 138.133 C 145.238 138.133,144.648 138.673,144.000 139.333 M268.533 138.483 C 268.533 138.529,268.923 138.919,269.400 139.350 L 270.267 140.133 269.483 139.267 C 268.753 138.459,268.533 138.277,268.533 138.483 M128.917 139.533 L 128.133 140.400 129.000 139.617 C 129.808 138.887,129.989 138.667,129.783 138.667 C 129.737 138.667,129.347 139.057,128.917 139.533 M139.994 141.000 L 137.733 143.333 140.067 141.073 C 142.234 138.973,142.521 138.667,142.327 138.667 C 142.288 138.667,141.238 139.717,139.994 141.000 M257.200 142.133 C 259.102 144.040,260.719 145.600,260.792 145.600 C 260.866 145.600,259.369 144.040,257.467 142.133 C 255.564 140.227,253.948 138.667,253.874 138.667 C 253.801 138.667,255.298 140.227,257.200 142.133 M258.267 140.800 C 259.137 141.680,259.910 142.400,259.983 142.400 C 260.057 142.400,259.404 141.680,258.533 140.800 C 257.663 139.920,256.890 139.200,256.817 139.200 C 256.743 139.200,257.396 139.920,258.267 140.800 M261.467 144.267 C 262.040 144.853,262.568 145.333,262.642 145.333 C 262.715 145.333,262.306 144.853,261.733 144.267 C 261.160 143.680,260.632 143.200,260.558 143.200 C 260.485 143.200,260.894 143.680,261.467 144.267 M138.667 144.667 C 138.019 145.327,137.549 145.867,137.622 145.867 C 137.696 145.867,138.286 145.327,138.933 144.667 C 139.581 144.007,140.051 143.467,139.978 143.467 C 139.904 143.467,139.314 144.007,138.667 144.667 M136.519 144.733 L 135.600 145.733 136.600 144.814 C 137.150 144.309,137.600 143.859,137.600 143.814 C 137.600 143.611,137.374 143.803,136.519 144.733 M116.253 158.426 C 115.947 159.027,115.742 159.564,115.798 159.620 C 115.854 159.676,116.160 159.184,116.480 158.527 C 117.206 157.032,117.010 156.943,116.253 158.426 M125.200 161.067 C 124.972 161.507,124.846 161.867,124.920 161.867 C 124.993 161.867,125.239 161.507,125.467 161.067 C 125.694 160.627,125.820 160.267,125.747 160.267 C 125.674 160.267,125.428 160.627,125.200 161.067 M190.219 162.133 C 190.219 163.087,190.267 163.477,190.326 163.000 C 190.385 162.523,190.385 161.743,190.326 161.267 C 190.267 160.790,190.219 161.180,190.219 162.133 M273.920 162.527 C 274.240 163.184,274.546 163.676,274.602 163.620 C 274.723 163.499,273.645 161.333,273.465 161.333 C 273.396 161.333,273.601 161.871,273.920 162.527 M125.853 163.227 C 125.401 164.122,125.076 164.898,125.130 164.952 C 125.183 165.006,125.610 164.273,126.078 163.325 C 126.546 162.376,126.871 161.600,126.801 161.600 C 126.731 161.600,126.305 162.332,125.853 163.227 M123.510 164.411 C 123.063 165.392,123.148 165.601,123.632 164.710 C 123.857 164.293,123.992 163.903,123.931 163.842 C 123.870 163.781,123.680 164.037,123.510 164.411 M184.108 169.667 L 183.600 170.267 184.183 169.774 C 184.512 169.496,184.908 169.369,185.091 169.482 C 185.298 169.610,185.347 169.571,185.225 169.375 C 184.947 168.924,184.678 168.994,184.108 169.667 M185.160 173.067 C 185.160 174.313,185.206 174.823,185.262 174.200 C 185.318 173.577,185.318 172.557,185.262 171.933 C 185.206 171.310,185.160 171.820,185.160 173.067 M175.262 179.733 C 175.262 180.247,175.317 180.457,175.384 180.200 C 175.451 179.943,175.451 179.523,175.384 179.267 C 175.317 179.010,175.262 179.220,175.262 179.733 M195.333 191.200 C 196.500 192.373,197.514 193.333,197.587 193.333 C 197.661 193.333,196.766 192.373,195.600 191.200 C 194.434 190.027,193.419 189.067,193.346 189.067 C 193.273 189.067,194.167 190.027,195.333 191.200 M106.995 190.667 C 106.995 191.180,107.050 191.390,107.117 191.133 C 107.184 190.877,107.184 190.457,107.117 190.200 C 107.050 189.943,106.995 190.153,106.995 190.667 M291.534 191.067 C 291.537 191.653,291.591 191.862,291.655 191.530 C 291.719 191.199,291.717 190.719,291.650 190.464 C 291.583 190.209,291.531 190.480,291.534 191.067 M116.067 191.867 C 116.070 192.453,116.125 192.662,116.189 192.330 C 116.252 191.999,116.250 191.519,116.183 191.264 C 116.116 191.009,116.064 191.280,116.067 191.867 M117.662 191.733 C 117.662 192.247,117.717 192.457,117.784 192.200 C 117.851 191.943,117.851 191.523,117.784 191.267 C 117.717 191.010,117.662 191.220,117.662 191.733 M280.867 192.133 C 280.870 192.720,280.925 192.929,280.989 192.597 C 281.052 192.265,281.050 191.785,280.983 191.530 C 280.916 191.275,280.864 191.547,280.867 192.133 M282.467 192.400 C 282.470 192.987,282.525 193.195,282.589 192.864 C 282.652 192.532,282.650 192.052,282.583 191.797 C 282.516 191.542,282.464 191.813,282.467 192.400 M106.743 194.000 C 106.745 194.733,106.797 195.002,106.858 194.596 C 106.919 194.191,106.918 193.591,106.854 193.263 C 106.791 192.935,106.741 193.267,106.743 194.000 M291.816 194.800 C 291.817 195.680,291.867 196.008,291.927 195.529 C 291.986 195.049,291.985 194.329,291.924 193.929 C 291.863 193.528,291.814 193.920,291.816 194.800 M117.416 195.333 C 117.417 196.213,117.467 196.541,117.527 196.062 C 117.586 195.583,117.585 194.863,117.524 194.462 C 117.463 194.061,117.414 194.453,117.416 195.333 M115.819 195.733 C 115.819 196.687,115.867 197.077,115.926 196.600 C 115.985 196.123,115.985 195.343,115.926 194.867 C 115.867 194.390,115.819 194.780,115.819 195.733 M201.467 197.067 C 203.075 198.680,204.451 200.000,204.524 200.000 C 204.598 200.000,203.342 198.680,201.733 197.067 C 200.125 195.453,198.749 194.133,198.676 194.133 C 198.602 194.133,199.858 195.453,201.467 197.067 M281.156 196.267 C 281.156 197.367,281.203 197.817,281.261 197.267 C 281.318 196.717,281.318 195.817,281.261 195.267 C 281.203 194.717,281.156 195.167,281.156 196.267 M282.779 199.867 C 282.778 202.800,282.817 204.036,282.865 202.614 C 282.913 201.192,282.913 198.792,282.866 197.281 C 282.818 195.770,282.779 196.933,282.779 199.867 M133.714 197.219 C 133.945 197.450,134.133 197.770,134.133 197.930 C 134.133 198.091,134.203 198.152,134.288 198.067 C 134.504 197.852,133.909 196.800,133.572 196.800 C 133.420 196.800,133.484 196.989,133.714 197.219 M265.448 197.219 C 265.678 197.450,265.867 197.770,265.867 197.930 C 265.867 198.091,265.936 198.152,266.022 198.067 C 266.237 197.852,265.643 196.800,265.305 196.800 C 265.153 196.800,265.217 196.989,265.448 197.219 M189.600 197.950 C 189.600 197.996,189.990 198.386,190.467 198.817 L 191.333 199.600 190.550 198.733 C 189.820 197.925,189.600 197.744,189.600 197.950 M106.485 200.000 C 106.485 200.953,106.534 201.343,106.593 200.867 C 106.652 200.390,106.652 199.610,106.593 199.133 C 106.534 198.657,106.485 199.047,106.485 200.000 M192.400 201.067 C 192.973 201.653,193.502 202.133,193.575 202.133 C 193.648 202.133,193.240 201.653,192.667 201.067 C 192.094 200.480,191.565 200.000,191.492 200.000 C 191.418 200.000,191.827 200.480,192.400 201.067 M281.156 203.733 C 281.156 204.833,281.203 205.283,281.261 204.733 C 281.318 204.183,281.318 203.283,281.261 202.733 C 281.203 202.183,281.156 202.633,281.156 203.733 M115.821 204.133 C 115.822 205.160,115.870 205.547,115.928 204.994 C 115.986 204.441,115.985 203.601,115.926 203.127 C 115.867 202.654,115.820 203.107,115.821 204.133 M194.800 203.733 C 195.373 204.320,195.902 204.800,195.975 204.800 C 196.048 204.800,195.640 204.320,195.067 203.733 C 194.494 203.147,193.965 202.667,193.892 202.667 C 193.818 202.667,194.227 203.147,194.800 203.733 M124.800 203.095 C 124.800 203.233,125.790 204.303,127.000 205.473 L 129.200 207.600 127.067 205.341 C 125.893 204.099,124.903 203.029,124.867 202.963 C 124.830 202.898,124.800 202.957,124.800 203.095 M141.829 203.120 C 142.072 203.216,141.455 204.024,139.962 205.565 L 137.733 207.867 140.067 205.606 C 142.479 203.268,142.725 202.919,141.933 202.954 C 141.610 202.969,141.578 203.020,141.829 203.120 M258.400 205.200 C 259.640 206.447,260.710 207.467,260.777 207.467 C 261.005 207.467,256.668 203.002,256.406 202.968 C 256.262 202.949,257.160 203.953,258.400 205.200 M273.562 203.120 C 273.805 203.216,273.189 204.024,271.696 205.565 L 269.467 207.867 271.800 205.606 C 274.212 203.268,274.459 202.919,273.667 202.954 C 273.343 202.969,273.311 203.020,273.562 203.120 M117.416 204.667 C 117.417 205.547,117.467 205.875,117.527 205.395 C 117.586 204.916,117.585 204.196,117.524 203.795 C 117.463 203.395,117.414 203.787,117.416 204.667 M291.816 205.200 C 291.817 206.080,291.867 206.408,291.927 205.929 C 291.986 205.449,291.985 204.729,291.924 204.329 C 291.863 203.928,291.814 204.320,291.816 205.200 M106.747 205.867 C 106.747 206.673,106.797 207.003,106.858 206.600 C 106.919 206.197,106.919 205.537,106.858 205.133 C 106.797 204.730,106.747 205.060,106.747 205.867 M197.067 206.267 C 197.564 206.780,198.031 207.200,198.105 207.200 C 198.178 207.200,197.831 206.780,197.333 206.267 C 196.836 205.753,196.369 205.333,196.295 205.333 C 196.222 205.333,196.569 205.753,197.067 206.267 M209.654 207.861 C 209.973 208.518,210.280 209.009,210.336 208.953 C 210.456 208.833,209.379 206.667,209.198 206.667 C 209.130 206.667,209.335 207.204,209.654 207.861 M282.467 207.600 C 282.470 208.187,282.525 208.395,282.589 208.064 C 282.652 207.732,282.650 207.252,282.583 206.997 C 282.516 206.742,282.464 207.013,282.467 207.600 M280.862 207.733 C 280.862 208.247,280.917 208.457,280.984 208.200 C 281.051 207.943,281.051 207.523,280.984 207.267 C 280.917 207.010,280.862 207.220,280.862 207.733 M116.062 208.000 C 116.062 208.513,116.117 208.723,116.184 208.467 C 116.251 208.210,116.251 207.790,116.184 207.533 C 116.117 207.277,116.062 207.487,116.062 208.000 M117.662 208.267 C 117.662 208.780,117.717 208.990,117.784 208.733 C 117.851 208.477,117.851 208.057,117.784 207.800 C 117.717 207.543,117.662 207.753,117.662 208.267 M199.200 208.667 C 199.698 209.180,200.165 209.600,200.238 209.600 C 200.311 209.600,199.964 209.180,199.467 208.667 C 198.969 208.153,198.502 207.733,198.429 207.733 C 198.355 207.733,198.702 208.153,199.200 208.667 M291.529 208.800 C 291.529 209.313,291.583 209.523,291.650 209.267 C 291.718 209.010,291.718 208.590,291.650 208.333 C 291.583 208.077,291.529 208.287,291.529 208.800 M106.995 209.333 C 106.995 209.847,107.050 210.057,107.117 209.800 C 107.184 209.543,107.184 209.123,107.117 208.867 C 107.050 208.610,106.995 208.820,106.995 209.333 M200.800 210.483 C 200.800 210.529,201.190 210.919,201.667 211.350 L 202.533 212.133 201.750 211.267 C 201.020 210.459,200.800 210.277,200.800 210.483 M135.200 211.586 C 135.200 211.660,135.560 211.906,136.000 212.133 C 136.440 212.361,136.800 212.487,136.800 212.414 C 136.800 212.340,136.440 212.094,136.000 211.867 C 135.560 211.639,135.200 211.513,135.200 211.586 M266.933 211.586 C 266.933 211.660,267.293 211.906,267.733 212.133 C 268.173 212.361,268.533 212.487,268.533 212.414 C 268.533 212.340,268.173 212.094,267.733 211.867 C 267.293 211.639,266.933 211.513,266.933 211.586 M128.031 213.000 C 127.998 213.638,128.375 213.805,128.692 213.292 C 128.805 213.109,128.766 213.056,128.595 213.162 C 128.436 213.260,128.252 213.128,128.184 212.870 C 128.091 212.512,128.054 212.543,128.031 213.000 M259.764 213.000 C 259.731 213.638,260.109 213.805,260.425 213.292 C 260.539 213.109,260.499 213.056,260.328 213.162 C 260.170 213.260,259.985 213.128,259.918 212.870 C 259.824 212.512,259.788 212.543,259.764 213.000 M205.521 217.459 C 205.915 218.262,206.282 218.874,206.336 218.819 C 206.456 218.699,205.111 216.000,204.932 216.000 C 204.862 216.000,205.128 216.657,205.521 217.459 M212.901 220.800 C 212.901 222.487,212.944 223.177,212.997 222.333 C 213.050 221.490,213.050 220.110,212.997 219.267 C 212.944 218.423,212.901 219.113,212.901 220.800 M217.943 219.600 C 217.945 220.333,217.997 220.602,218.058 220.196 C 218.119 219.791,218.118 219.191,218.054 218.863 C 217.991 218.535,217.941 218.867,217.943 219.600 M208.621 229.467 C 208.622 230.493,208.670 230.881,208.728 230.327 C 208.786 229.774,208.785 228.934,208.726 228.461 C 208.667 227.987,208.620 228.440,208.621 229.467 M209.781 234.545 C 209.535 235.061,209.064 235.592,208.734 235.725 C 208.343 235.882,208.282 235.972,208.559 235.983 C 209.157 236.007,210.682 234.060,210.336 233.714 C 210.277 233.655,210.028 234.029,209.781 234.545 M273.643 234.278 C 273.197 235.259,273.282 235.468,273.765 234.576 C 273.990 234.160,274.125 233.770,274.064 233.709 C 274.003 233.648,273.814 233.904,273.643 234.278 M271.600 238.400 C 271.372 238.840,271.246 239.200,271.320 239.200 C 271.393 239.200,271.639 238.840,271.867 238.400 C 272.094 237.960,272.220 237.600,272.147 237.600 C 272.074 237.600,271.828 237.960,271.600 238.400 M282.848 239.879 C 282.221 241.193,282.309 241.416,282.964 240.175 C 283.262 239.611,283.458 239.103,283.400 239.045 C 283.343 238.987,283.094 239.363,282.848 239.879 M281.467 242.667 C 281.095 243.400,280.851 244.000,280.924 244.000 C 280.998 244.000,281.362 243.400,281.733 242.667 C 282.105 241.933,282.349 241.333,282.276 241.333 C 282.202 241.333,281.838 241.933,281.467 242.667 M117.733 244.267 C 117.961 244.707,118.207 245.067,118.280 245.067 C 118.354 245.067,118.228 244.707,118.000 244.267 C 117.772 243.827,117.526 243.467,117.453 243.467 C 117.380 243.467,117.506 243.827,117.733 244.267 M136.533 252.883 C 136.533 252.929,136.923 253.319,137.400 253.750 L 138.267 254.533 137.483 253.667 C 136.753 252.859,136.533 252.677,136.533 252.883 M168.103 253.450 C 167.886 254.015,168.083 254.746,168.473 254.825 C 168.660 254.862,168.690 254.832,168.540 254.758 C 168.390 254.683,168.267 254.332,168.267 253.978 L 168.267 253.333 198.297 253.333 L 228.327 253.333 228.210 254.133 C 228.145 254.573,228.199 254.933,228.330 254.933 C 228.460 254.933,228.530 254.543,228.484 254.067 L 228.400 253.200 198.325 253.132 C 172.295 253.073,168.231 253.116,168.103 253.450 M260.917 253.933 L 260.133 254.800 261.000 254.017 C 261.477 253.586,261.867 253.196,261.867 253.150 C 261.867 252.944,261.647 253.125,260.917 253.933 M141.200 257.867 C 142.808 259.480,144.184 260.800,144.258 260.800 C 144.331 260.800,143.075 259.480,141.467 257.867 C 139.858 256.253,138.482 254.933,138.409 254.933 C 138.336 254.933,139.592 256.253,141.200 257.867 M137.589 256.333 C 138.243 257.030,138.813 257.600,138.856 257.600 C 139.056 257.600,138.844 257.361,137.667 256.256 L 136.400 255.067 137.589 256.333 M257.194 257.933 L 254.800 260.400 257.267 258.006 C 259.558 255.782,259.855 255.467,259.661 255.467 C 259.621 255.467,258.511 256.577,257.194 257.933 M258.263 259.000 L 254.800 262.533 258.333 259.071 C 261.616 255.854,261.988 255.467,261.796 255.467 C 261.757 255.467,260.167 257.057,258.263 259.000 M142.656 261.400 C 143.309 262.097,143.879 262.667,143.922 262.667 C 144.122 262.667,143.911 262.427,142.733 261.322 L 141.467 260.133 142.656 261.400 M129.067 260.617 C 129.067 260.663,129.457 261.053,129.933 261.483 L 130.800 262.267 130.017 261.400 C 129.287 260.592,129.067 260.411,129.067 260.617 M253.183 261.667 L 252.400 262.533 253.267 261.750 C 253.743 261.319,254.133 260.929,254.133 260.883 C 254.133 260.677,253.913 260.859,253.183 261.667 M268.252 261.800 L 267.333 262.800 268.333 261.881 C 268.883 261.376,269.333 260.926,269.333 260.881 C 269.333 260.677,269.108 260.869,268.252 261.800 M144.800 261.150 C 144.800 261.196,145.190 261.586,145.667 262.017 L 146.533 262.800 145.750 261.933 C 145.020 261.125,144.800 260.944,144.800 261.150 M173.673 262.133 C 173.673 262.793,173.725 263.063,173.788 262.733 C 173.852 262.403,173.852 261.863,173.788 261.533 C 173.725 261.203,173.673 261.473,173.673 262.133 M223.006 262.133 C 223.006 262.793,223.058 263.063,223.122 262.733 C 223.185 262.403,223.185 261.863,223.122 261.533 C 223.058 261.203,223.006 261.473,223.006 262.133 M253.450 263.533 L 252.667 264.400 253.533 263.617 C 254.010 263.186,254.400 262.796,254.400 262.750 C 254.400 262.544,254.180 262.725,253.450 263.533 M133.600 265.467 C 134.988 266.860,136.183 268.000,136.256 268.000 C 136.329 268.000,135.254 266.860,133.867 265.467 C 132.479 264.073,131.284 262.933,131.211 262.933 C 131.137 262.933,132.212 264.073,133.600 265.467 M264.800 265.467 C 263.707 266.567,262.873 267.467,262.947 267.467 C 263.020 267.467,263.974 266.567,265.067 265.467 C 266.159 264.367,266.993 263.467,266.920 263.467 C 266.847 263.467,265.893 264.367,264.800 265.467 M223.200 264.132 C 223.200 264.482,220.175 264.539,198.200 264.600 L 173.200 264.669 198.333 264.735 C 223.311 264.800,223.467 264.797,223.467 264.267 C 223.467 263.973,223.407 263.733,223.333 263.733 C 223.260 263.733,223.200 263.913,223.200 264.132 M177.661 273.400 L 177.722 279.067 177.800 273.539 L 177.877 268.011 183.539 267.933 L 189.200 267.855 183.400 267.794 L 177.600 267.733 177.661 273.400 M190.667 274.514 C 190.667 280.741,190.629 281.305,190.200 281.432 C 189.837 281.539,189.852 281.557,190.267 281.514 C 190.782 281.461,190.802 281.237,190.871 274.734 L 190.942 268.008 198.605 267.933 L 206.267 267.858 198.467 267.796 L 190.667 267.733 190.667 274.514 M207.733 274.511 C 207.733 279.684,207.654 281.321,207.400 281.423 C 207.201 281.504,207.255 281.566,207.533 281.579 C 207.966 281.598,208.000 281.107,208.000 274.805 L 208.000 268.011 213.667 267.933 L 219.333 267.855 213.533 267.794 L 207.733 267.733 207.733 274.511 M260.921 269.133 L 259.867 270.267 261.000 269.213 C 262.054 268.232,262.256 268.000,262.054 268.000 C 262.011 268.000,261.501 268.510,260.921 269.133 M137.867 269.467 C 138.364 269.980,138.831 270.400,138.905 270.400 C 138.978 270.400,138.631 269.980,138.133 269.467 C 137.636 268.953,137.169 268.533,137.095 268.533 C 137.022 268.533,137.369 268.953,137.867 269.467 M160.533 273.998 C 160.533 274.178,163.233 275.523,163.352 275.403 C 163.407 275.349,162.795 274.982,161.993 274.588 C 161.190 274.195,160.533 273.929,160.533 273.998 M251.600 276.423 L 250.800 277.111 251.667 276.537 C 252.143 276.222,252.533 275.912,252.533 275.849 C 252.533 275.649,252.420 275.718,251.600 276.423 M190.467 283.117 C 190.723 283.184,191.143 283.184,191.400 283.117 C 191.657 283.050,191.447 282.995,190.933 282.995 C 190.420 282.995,190.210 283.050,190.467 283.117 M207.267 283.117 C 207.523 283.184,207.943 283.184,208.200 283.117 C 208.457 283.050,208.247 282.995,207.733 282.995 C 207.220 282.995,207.010 283.050,207.267 283.117 M193.538 283.393 C 194.017 283.453,194.737 283.451,195.138 283.391 C 195.539 283.330,195.147 283.281,194.267 283.283 C 193.387 283.284,193.059 283.334,193.538 283.393 M203.671 283.393 C 204.151 283.453,204.871 283.451,205.271 283.391 C 205.672 283.330,205.280 283.281,204.400 283.283 C 203.520 283.284,203.192 283.334,203.671 283.393 M189.133 292.184 C 189.390 292.251,189.810 292.251,190.067 292.184 C 190.323 292.117,190.113 292.062,189.600 292.062 C 189.087 292.062,188.877 292.117,189.133 292.184 M208.600 292.184 C 208.857 292.251,209.277 292.251,209.533 292.184 C 209.790 292.117,209.580 292.062,209.067 292.062 C 208.553 292.062,208.343 292.117,208.600 292.184 M192.070 292.458 C 192.476 292.519,193.076 292.518,193.404 292.454 C 193.732 292.391,193.400 292.341,192.667 292.343 C 191.933 292.345,191.665 292.397,192.070 292.458 M205.404 292.458 C 205.809 292.519,206.409 292.518,206.737 292.454 C 207.065 292.391,206.733 292.341,206.000 292.343 C 205.267 292.345,204.998 292.397,205.404 292.458 M197.533 292.731 C 198.450 292.783,199.950 292.783,200.867 292.731 C 201.783 292.679,201.033 292.636,199.200 292.636 C 197.367 292.636,196.617 292.679,197.533 292.731 " stroke="none" fill="#f5de8e" fill-rule="evenodd"></path><path id="path4" d="M196.403 142.512 C 191.808 147.384,189.121 160.895,191.042 169.467 C 192.827 177.432,195.023 181.107,204.867 192.613 C 218.832 208.935,221.231 219.540,214.137 233.593 C 211.150 239.511,205.295 245.999,200.114 249.134 C 199.326 249.610,198.678 250.090,198.674 250.200 C 198.657 250.658,221.038 250.428,221.947 249.961 C 233.729 243.896,242.209 229.412,242.218 215.333 C 242.227 202.005,235.577 191.112,219.867 178.718 C 216.263 175.875,208.661 168.397,206.189 165.263 C 202.331 160.373,200.294 154.694,199.471 146.533 C 198.940 141.265,198.332 140.467,196.403 142.512 " stroke="none" fill="#2e3192" fill-rule="evenodd"></path></g></svg>